<?xml version="1.0" standalone="no"?>
<!DOCTYPE svg PUBLIC "-//W3C//DTD SVG 20010904//EN"
 "http://www.w3.org/TR/2001/REC-SVG-20010904/DTD/svg10.dtd">
<svg version="1.0" xmlns="http://www.w3.org/2000/svg"
 width="250.000000pt" height="250.000000pt" viewBox="0 0 250.000000 250.000000"
 preserveAspectRatio="xMidYMid meet">
<metadata>
Created by potrace 1.14, written by Peter Selinger 2001-2017
</metadata>
<g transform="translate(0.000000,250.000000) scale(0.100000,-0.100000)"
fill="#000000" stroke="none">
<path d="M1297 1914 c-1 -1 -30 -5 -65 -8 -34 -4 -74 -11 -87 -16 -33 -13
-117 -91 -160 -150 -34 -46 -35 -47 -97 -49 -35 -1 -75 -4 -90 -6 -14 -2 -68
-6 -119 -10 -52 -4 -102 -9 -112 -11 -10 -2 -48 -6 -84 -9 -37 -3 -69 -8 -72
-9 -3 -2 -31 -7 -61 -10 -163 -19 -210 -57 -210 -170 0 -29 -5 -46 -14 -49
-28 -11 -1 -87 30 -87 7 0 28 -13 46 -28 52 -45 143 -92 177 -92 25 0 33 -5
41 -27 30 -81 63 -103 162 -105 69 -1 104 6 130 29 17 15 49 15 370 -3 110 -6
140 0 165 37 10 13 27 17 73 17 54 -1 60 -3 60 -22 0 -29 34 -82 62 -98 33
-18 217 -17 251 1 28 15 64 78 69 123 5 36 7 38 69 44 30 3 80 9 112 14 56 9
59 8 85 -20 25 -27 34 -30 118 -36 51 -3 102 -3 114 1 21 7 68 91 56 102 -3 3
-8 -6 -11 -20 -10 -39 -39 -61 -63 -48 -22 11 -37 41 -22 41 6 0 10 10 10 23
0 38 20 49 41 24 l18 -22 2 25 c2 27 2 60 0 73 0 5 -17 -8 -36 -29 -26 -27
-39 -34 -47 -26 -8 8 -17 7 -32 -4 -28 -18 -125 -51 -172 -58 -20 -4 -39 -8
-43 -10 -3 -2 -45 -7 -92 -11 l-86 -7 -6 82 c-9 110 -32 148 -104 163 -31 7
-82 -29 -104 -73 -21 -40 -27 -74 -28 -146 -1 -47 -4 -53 -28 -62 -16 -6 -44
-13 -63 -16 -31 -5 -30 -4 9 9 25 8 48 18 53 23 4 4 10 34 13 65 10 118 43
189 100 213 50 20 98 7 137 -40 19 -23 41 -111 38 -154 -4 -54 -3 -55 38 -48
20 4 54 9 75 12 52 7 176 39 219 57 29 12 39 24 52 65 39 115 129 138 149 37
l6 -30 -14 32 c-20 44 -43 55 -72 35 -27 -17 -53 -62 -53 -91 0 -18 3 -19 29
-10 30 11 50 56 36 79 -3 5 -2 10 4 10 14 0 41 -41 41 -63 0 -26 28 -18 52 14
26 34 35 137 18 180 -16 37 -102 89 -145 88 -28 -1 -28 -2 8 -10 46 -11 89
-32 106 -53 19 -23 7 -20 -35 9 -55 37 -95 41 -157 15 -43 -19 -74 -23 -182
-26 -71 -2 -148 -6 -170 -8 -22 -3 -61 -8 -88 -11 -26 -3 -87 -17 -135 -32
-151 -44 -177 -50 -201 -46 -47 7 -66 44 -38 72 10 10 7 10 -14 2 -15 -5 -29
-8 -31 -6 -10 11 -411 22 -812 24 -132 1 -237 3 -235 5 4 4 60 14 224 42 16 3
59 7 95 9 36 2 121 13 190 24 115 18 241 34 282 35 9 1 19 4 23 7 3 4 -12 5
-34 3 -23 -2 -41 -2 -41 1 0 15 40 65 85 107 38 37 63 50 105 60 77 18 470 17
588 -2 1 0 2 -51 2 -114 l0 -114 -72 14 c-40 8 -98 17 -128 20 -30 3 -62 7
-70 9 -8 3 -64 7 -125 10 -60 4 -113 9 -117 11 -4 3 -8 1 -8 -4 0 -5 35 -13
77 -17 43 -4 87 -9 98 -10 11 -2 38 -6 59 -10 55 -8 57 -15 5 -16 -48 -1 -63
-3 -124 -18 l-40 -11 45 6 c75 9 249 13 210 5 -19 -4 41 -6 134 -5 93 2 171 6
175 10 3 3 1 5 -4 4 -6 -1 -29 -2 -53 -1 l-43 1 4 110 c2 60 7 113 11 117 13
13 135 -26 190 -61 30 -19 73 -59 96 -87 l42 -53 -24 -9 c-31 -12 -104 -21
-155 -21 -44 1 -61 -11 -20 -13 127 -7 197 -5 230 7 20 8 37 17 37 20 0 13
-136 135 -191 170 -97 63 -144 74 -363 86 -99 6 -345 11 -349 8z m-672 -368
c638 -16 638 -16 665 -35 35 -26 41 -100 9 -132 -23 -23 -15 -23 -554 -4 -49
2 -180 7 -290 10 -110 3 -211 8 -225 10 -70 12 -83 130 -17 154 12 5 56 7 97
5 41 -1 183 -5 315 -8z m1081 -138 c39 -45 49 -79 48 -167 0 -67 -5 -94 -20
-121 -39 -66 -99 -77 -137 -25 -12 16 -14 24 -6 23 14 -3 35 82 26 106 -4 9
-17 12 -36 10 -29 -3 -31 -2 -29 26 2 28 4 30 34 24 44 -8 51 10 22 54 -14 20
-23 43 -21 50 9 24 22 11 38 -39 9 -27 22 -48 28 -46 6 2 18 25 26 51 14 45
14 49 -4 62 -14 11 -15 14 -4 14 9 0 24 -10 35 -22z m142 -58 l-5 -81 34 6
c71 11 138 17 133 12 -6 -6 -182 -38 -186 -34 -2 1 1 20 6 42 5 22 10 61 10
88 0 26 3 47 6 47 4 0 4 -36 2 -80z m-1648 45 c16 -15 56 -18 365 -30 77 -3
181 -7 230 -10 50 -2 176 -7 280 -11 105 -3 193 -8 197 -10 4 -3 11 2 15 11
16 27 103 39 103 14 0 -5 -14 -9 -32 -9 -17 0 -39 -7 -49 -16 -10 -9 -33 -16
-51 -17 -38 0 -384 13 -473 18 -33 2 -152 7 -265 11 -113 3 -218 8 -235 9 -16
2 -49 3 -72 4 -39 1 -73 20 -73 42 0 14 42 11 60 -6z m2040 -21 c0 -8 -4 -12
-10 -9 -5 3 -10 13 -10 21 0 8 5 12 10 9 6 -3 10 -13 10 -21z m-1872 -80 c13
-23 3 -52 -20 -59 -36 -12 -57 26 -35 63 11 17 44 15 55 -4z m515 8 c10 -3 22
-14 27 -26 7 -19 15 -21 94 -20 47 1 86 -3 86 -8 0 -4 -39 -8 -86 -7 -71 1
-89 -2 -96 -15 -8 -15 -27 -16 -156 -11 -130 4 -149 7 -163 24 -14 17 -30 20
-103 22 -59 1 -86 5 -83 13 2 7 34 10 91 9 70 -1 88 1 93 13 5 13 28 15 142
13 75 -2 144 -5 154 -7z m498 -29 c-2 -21 -6 -32 -8 -25 -3 6 -12 12 -22 12
-9 0 -26 7 -37 15 -18 14 -17 14 9 5 39 -14 44 -13 50 10 8 33 13 23 8 -17z
m-171 -28 c20 -24 4 -65 -25 -65 -18 0 -26 7 -31 25 -7 27 9 55 31 55 7 0 18
-7 25 -15z"/>
<path d="M227 1528 c-46 -16 -49 -89 -4 -104 12 -4 47 -8 77 -9 30 -2 138 -6
240 -9 102 -4 232 -9 290 -11 413 -17 432 -17 451 1 24 22 25 76 2 96 -19 16
-76 19 -763 34 -135 3 -249 6 -255 8 -5 2 -22 -1 -38 -6z"/>
<path d="M1697 1314 c-11 -14 -20 -32 -21 -39 -3 -22 -16 -31 -16 -12 0 20
-16 23 -23 5 -5 -18 3 -48 14 -48 5 0 9 5 9 10 0 6 15 -6 32 -26 32 -37 33
-37 39 -13 14 49 7 150 -10 149 -3 0 -14 -12 -24 -26z"/>
<path d="M1636 1170 c-19 -96 -19 -90 6 -90 13 0 32 7 43 16 19 14 19 15 1 49
-30 55 -43 61 -50 25z"/>
<path d="M1210 1698 c0 -4 7 -8 15 -8 8 0 15 4 15 8 0 5 -7 9 -15 9 -8 0 -15
-4 -15 -9z"/>
<path d="M1298 1613 c7 -3 16 -2 19 1 4 3 -2 6 -13 5 -11 0 -14 -3 -6 -6z"/>
<path d="M1470 1610 c-20 -6 -21 -8 -5 -8 11 0 34 4 50 8 27 7 27 8 5 8 -14 0
-36 -4 -50 -8z"/>
<path d="M2240 1261 c0 -11 -3 -26 -6 -34 -6 -16 11 -18 33 -4 9 6 10 14 1 32
-13 30 -28 33 -28 6z"/>
<path d="M168 958 c-9 -5 -14 -163 -9 -270 1 -16 12 -18 82 -18 76 0 82 2 110
30 34 33 34 68 0 104 -19 20 -19 23 -5 37 23 23 21 77 -4 101 -17 17 -34 21
-92 22 -40 1 -77 -2 -82 -6z m157 -42 c8 -10 12 -27 10 -38 -8 -38 -25 -48
-86 -48 l-59 0 0 55 0 54 61 -2 c45 -2 65 -8 74 -21z m11 -131 c15 -20 10 -51
-11 -73 -7 -8 -32 -14 -56 -14 -84 0 -79 -3 -79 58 l0 56 66 -4 c50 -3 70 -9
80 -23z"/>
<path d="M670 820 c0 -93 4 -150 10 -150 9 0 14 15 11 33 -1 5 10 0 25 -12 96
-75 206 58 133 161 -28 39 -81 47 -120 19 l-29 -22 0 61 c0 47 -3 60 -15 60
-13 0 -15 -23 -15 -150z m163 1 c25 -51 11 -96 -38 -117 -28 -11 -40 -12 -58
-3 -31 17 -37 28 -37 80 0 46 15 70 50 81 26 8 70 -13 83 -41z"/>
<path d="M1115 959 c-58 -17 -105 -85 -105 -149 1 -34 41 -101 72 -120 41 -25
73 -25 121 -1 37 19 37 19 37 -1 0 -11 5 -18 12 -16 8 3 12 28 13 73 l0 70
-42 0 c-28 0 -43 -4 -43 -12 0 -8 12 -13 30 -13 25 0 30 -4 30 -23 0 -49 -74
-84 -128 -62 -117 50 -73 251 50 230 18 -4 43 -16 56 -27 15 -15 25 -19 33
-11 11 11 -42 63 -66 63 -7 0 -19 2 -27 4 -7 2 -26 0 -43 -5z"/>
<path d="M468 875 c-31 -17 -58 -62 -58 -95 0 -35 29 -86 56 -99 79 -36 154
15 154 104 0 73 -89 125 -152 90z m99 -37 c39 -36 30 -109 -16 -132 -80 -38
-147 56 -90 128 26 33 73 35 106 4z"/>
<path d="M1343 877 c-13 -5 -23 -16 -23 -23 0 -10 6 -10 28 2 15 7 34 14 42
14 26 0 60 -30 60 -53 0 -21 -5 -23 -56 -23 -47 0 -59 -4 -76 -24 -22 -27 -18
-67 9 -87 22 -17 72 -16 103 1 21 12 26 12 36 -2 18 -25 21 -14 16 74 -5 99
-22 127 -78 129 -22 1 -49 -2 -61 -8z m105 -129 c5 -46 -61 -75 -103 -45 -13
10 -16 21 -11 40 7 28 24 36 76 34 30 -2 35 -6 38 -29z"/>
<path d="M1597 869 c-30 -23 -38 -24 -31 -4 4 9 0 15 -10 15 -14 0 -16 -15
-16 -105 0 -87 3 -105 15 -105 12 0 15 15 15 74 0 69 2 76 26 95 15 12 33 21
40 21 18 0 18 16 0 23 -8 3 -26 -3 -39 -14z"/>
<path d="M1714 880 c-33 -13 -44 -35 -13 -26 72 23 100 13 112 -36 7 -28 7
-28 -36 -22 -89 13 -141 -51 -90 -108 19 -22 68 -23 105 -4 23 12 27 12 32 -1
7 -18 32 -11 27 8 -2 8 -4 45 -6 84 -3 61 -6 72 -30 92 -27 24 -64 28 -101 13z
m96 -115 c33 -40 -50 -97 -98 -66 -20 12 -22 44 -4 64 19 21 85 23 102 2z"/>
<path d="M1931 864 c-40 -36 -50 -87 -27 -136 26 -54 90 -75 132 -43 10 8 22
15 26 15 14 0 1 -62 -16 -78 -22 -22 -91 -20 -116 3 -27 25 -39 10 -13 -16 28
-28 92 -35 131 -15 40 21 50 57 51 191 0 107 0 109 -18 88 -16 -19 -20 -20
-33 -7 -8 8 -30 17 -50 20 -29 5 -41 1 -67 -22z m114 -25 c24 -21 31 -79 15
-110 -16 -28 -53 -40 -88 -28 -68 24 -67 133 2 158 25 10 44 4 71 -20z"/>
<path d="M2193 870 c-62 -37 -63 -141 -2 -184 33 -23 91 -20 123 5 18 14 24
25 18 31 -7 7 -17 3 -31 -11 -36 -36 -93 -24 -119 26 -15 27 -6 33 49 32 24
-1 63 -1 87 0 40 1 43 3 37 24 -12 43 -30 69 -57 83 -37 19 -67 18 -105 -6z
m99 -20 c14 -11 28 -29 31 -40 5 -19 1 -20 -73 -20 -74 0 -78 1 -73 20 7 25
49 60 73 60 10 0 29 -9 42 -20z"/>
</g>
</svg>
